<!--?xml version="1.0" encoding="utf-8"?-->
<!-- Generator: Adobe Illustrator 18.1.1, SVG Export Plug-In . SVG Version: 6.00 Build 0)  -->

<svg version="1.1" id="_x31_0" xmlns="http://www.w3.org/2000/svg" xmlns:xlink="http://www.w3.org/1999/xlink" x="0px" y="0px" viewBox="0 0 512 512" style="width: 256px; height: 256px; opacity: 1;" xml:space="preserve">
<style type="text/css">
	.st0{fill:#374149;}
</style>
<g>
	<path class="st0" d="M509.733,20.269L512,0.172h-0.034l0.019-0.157l-113.77,12.65l-200.77,200.759l-50.79-50.791L66.83,242.457
		l62.23,62.23l-0.809,0.928l-16.543,18.517l-43.84,48.531c-0.474,0.007-0.946,0.015-1.409,0.034
		c-9.734,0.427-19.097,2.84-27.838,7.168c-6.76,3.367-12.898,7.78-18.238,13.124C7.234,406.135-0.004,423.649,0,442.299
		c0.004,18.642,7.249,36.156,20.398,49.306c13.139,13.142,30.644,20.38,49.279,20.38c18.639,0,36.149-7.242,49.302-20.395
		c5.333-5.333,9.746-11.455,13.123-18.211c4.344-8.738,6.76-18.109,7.184-27.831c0.03-0.653,0.019-1.259,0.03-1.901l66.983-59.872
		l0.989-0.858l61.857,61.86l0.267,0.267h0.004l0.11,0.111l79.71-79.698l0.007-0.007l0,0l0.111-0.111l-50.787-50.79l200.766-200.762
		L509.733,20.269z M475.821,37.514l-0.179,0.874l-1.321-1.332l-0.664-0.782l2.332-0.26L475.821,37.514z M474.29,51.26l-5.329,47.936
		l-192.88,192.868l-56.154-56.158L412.804,43.038l48.589-5.402L276.074,214.466l-4.333,4.13v0.004l-0.11,0.106l13.142,13.23
		l107.208-102.299L474.29,51.26z M253.466,314.418l0.13,0.13l-34.854,34.854l-56.154-56.154l34.858-34.858L253.466,314.418z
		 M174.958,235.906l-34.854,34.854l-28.308-28.304l34.858-34.854l28.289,28.293L174.958,235.906z M103.998,447.445
		c-0.378,2.492-1.106,4.866-1.992,7.176c-0.439,1.153-0.851,2.321-1.417,3.416c-1,1.928-2.149,3.738-3.458,5.443
		c-0.859,1.165-1.848,2.286-2.909,3.348c-1.126,1.126-2.31,2.161-3.993,3.424c-1.394,1.026-2.844,1.935-4.314,2.718
		c-1.722,0.897-3.554,1.668-5.417,2.29c-3.53,1.149-7.187,1.733-10.863,1.733c-9.218,0-17.906-3.611-24.46-10.165
		c-9.287-9.287-12.524-22.826-8.459-35.309c0.634-1.897,1.405-3.729,2.294-5.435c0.718-1.374,1.58-2.714,2.642-4.187l2.076-2.081
		l-0.198-0.202c0.527-0.614,1.015-1.263,1.584-1.832c0.012-0.011,0.019-0.023,0.031-0.034c1.072-1.077,2.222-2.05,3.519-3.023
		c1.607-1.252,3.366-2.359,5.286-3.317c3.199-1.676,6.749-2.814,10.558-3.386c1.729-0.263,3.458-0.404,5.176-0.404
		c1.218,0,2.424,0.069,3.779,0.229l1.118,0.126c7.47,1.019,14.261,4.402,19.654,9.799c5.37,5.366,8.722,12.176,9.757,19.696
		l0.149,1.23C104.49,441.601,104.441,444.543,103.998,447.445z M131.878,410.858c-3.298-6.543-7.654-12.623-12.879-17.846
		c-4.802-4.806-10.394-8.779-16.349-11.978c-0.53-0.302-1-0.676-1.542-0.966l44.329-49.336l33.999,33.999l1.802,1.813
		l-39.282,35.309L131.878,410.858z M304.386,365.334l-34.858,34.854l-28.3-28.301l34.854-34.858l28.289,28.292L304.386,365.334z" style="fill: rgb(223, 86, 86);"></path>
	<path class="st0" d="M69.694,424.671c-4.707,0-9.131,1.833-12.456,5.161c-3.324,3.321-5.157,7.746-5.157,12.455
		c0,4.71,1.833,9.134,5.157,12.459c3.325,3.325,7.749,5.158,12.456,5.158c4.706,0,9.13-1.833,12.455-5.158
		c3.325-3.325,5.157-7.749,5.157-12.459c0-4.71-1.832-9.134-5.157-12.455C78.824,426.504,74.4,424.671,69.694,424.671z" style="fill: rgb(223, 86, 86);"></path>
</g>
</svg>
